<?xml version="1.0" encoding="utf-8"?>
<!-- Generator: Adobe Illustrator 16.0.0, SVG Export Plug-In . SVG Version: 6.00 Build 0)  -->
<!DOCTYPE svg PUBLIC "-//W3C//DTD SVG 1.1//EN" "http://www.w3.org/Graphics/SVG/1.1/DTD/svg11.dtd">
<svg version="1.1" id="Layer_1" xmlns="http://www.w3.org/2000/svg" xmlns:xlink="http://www.w3.org/1999/xlink" x="0px" y="0px"
	 width="12.034px" height="12.033px" viewBox="1.983 1.65 12.034 12.033" enable-background="new 1.983 1.65 12.034 12.033"
	 xml:space="preserve">
<path fill="none" stroke="#77BBFF" stroke-width="0.7" stroke-miterlimit="10" d="M6.938,12.891l-0.005,0.004L6.82,12.979
	l-0.379,0.284c-0.106,0.079-0.25,0.092-0.372,0.032c-0.122-0.06-0.194-0.181-0.194-0.316v-0.472v-0.142v-0.007v-0.088v-1.063H4.813
	H3.75c-0.781,0-1.417-0.636-1.417-1.417V3.417C2.333,2.636,2.969,2,3.75,2h8.5c0.781,0,1.417,0.636,1.417,1.417v6.375
	c0,0.781-0.636,1.417-1.417,1.417H9.18L6.938,12.891z"/>
<path fill="#8CC6FF" d="M7.958,3.567c-1.758,0-3.182,1.424-3.182,3.182v0.612c0,0.204-0.164,0.367-0.367,0.367
	c-0.204,0-0.367-0.163-0.367-0.367V6.75c0-2.164,1.753-3.917,3.917-3.917c2.163,0,3.916,1.753,3.916,3.917v2.205
	c0,0.744-0.603,1.347-1.347,1.347L8.84,10.299c-0.127,0.219-0.365,0.367-0.637,0.367h-0.49c-0.405,0-0.734-0.329-0.734-0.734
	s0.329-0.734,0.734-0.734h0.49c0.271,0,0.51,0.148,0.637,0.367l1.688,0.002c0.338,0,0.611-0.274,0.611-0.612V6.75
	C11.14,4.991,9.716,3.567,7.958,3.567z"/>
<path fill="#8CC6FF" d="M4.245,6.015h0.245c0.271,0,0.489,0.219,0.489,0.489v1.714c0,0.27-0.219,0.489-0.489,0.489H4.245
	c-0.54,0-0.979-0.438-0.979-0.979V6.995C3.266,6.455,3.705,6.015,4.245,6.015z"/>
<path fill="#8CC6FF" d="M11.671,6.015c0.541,0,0.979,0.439,0.979,0.979v0.734c0,0.541-0.438,0.979-0.979,0.979h-0.243
	c-0.271,0-0.491-0.219-0.491-0.489V6.504c0-0.271,0.22-0.489,0.491-0.489H11.671z"/>
</svg>
